# xmcd
#
# Track frame offsets:
#	180
#	12550
#	24322
#	39303
#	50564
#	62757
#	75429
#	88191
#	99011
#	112065
#	123592
#	136073
#	150418
#	161371
#	173584
#	184418
#
# Disc length: 2601 seconds
#
# Revision: 1
# Processed by: cddbd v1.5.2PL0 Copyright (c) Steve Scherf et al.
# Submitted via: audiograbber 1.83.01
#
DISCID=bf0a2710
DTITLE=Various Artist - Country Legends Vol.1 - CD1
DYEAR=2005
DGENRE=Country
TTITLE0=Village Boys - Boogie Woogie In The Village
TTITLE1=Adolph Hofner - Alamo Rag
TTITLE2=Arthur Smith - Guitar Boogie
TTITLE3=Texas Ruby - Don't Let The Man Get You Down
TTITLE4=Jimmie Widener - I'll Be Satisfied
TTITLE5=Red Foley - Fraight Train Boogie
TTITLE6=Ocie Stockard - Cow Town Boogie
TTITLE7=Hank Thompson - Humpty Dumpty Heart
TTITLE8=Hank Penny - Big Fat Papa
TTITLE9=Tommy Duncan - Chattanooga Shoe Shine Boy
TTITLE10=Texas Top Hands - 12th Street Rag
TTITLE11="Tennessee" Ernie Rod - The Cry  Of The Wild Goose
TTITLE12=Eddie Miller - Release Me
TTITLE13=Lefty Frizzell - I Love You A Thousand Way
TTITLE14=Hank Williams - Lonesome Whistle
TTITLE15=Johny Hicks - Get Your Kicks
EXTD=
EXTT0=
EXTT1=
EXTT2=
EXTT3=
EXTT4=
EXTT5=
EXTT6=
EXTT7=
EXTT8=
EXTT9=
EXTT10=
EXTT11=
EXTT12=
EXTT13=
EXTT14=
EXTT15=
PLAYORDER=
